<svg width="104" height="142" viewBox="0 0 104 142" fill="none" xmlns="http://www.w3.org/2000/svg">
<rect width="104" height="142" rx="10" fill="#EFEFEF"/>
<g opacity="0.2">
<path d="M55.5013 66.3333H55.513M42.668 74.4999L47.3346 69.8332C47.8667 69.3213 48.4703 69.0517 49.0846 69.0517C49.699 69.0517 50.3026 69.3213 50.8346 69.8332L56.668 75.6666M54.3346 73.3332L55.5013 72.1666C56.0334 71.6546 56.6369 71.3851 57.2513 71.3851C57.8657 71.3851 58.4692 71.6546 59.0013 72.1666L61.3346 74.4999M46.168 61.6666H57.8346C59.7676 61.6666 61.3346 63.2336 61.3346 65.1666V76.8333C61.3346 78.7663 59.7676 80.3333 57.8346 80.3333H46.168C44.235 80.3333 42.668 78.7663 42.668 76.8333V65.1666C42.668 63.2336 44.235 61.6666 46.168 61.6666Z" stroke="black" stroke-width="2" stroke-linecap="round" stroke-linejoin="round"/>
</g>
</svg>
