<svg xmlns="http://www.w3.org/2000/svg" width="172" height="256" viewBox="0 0 172 256" fill="none">
<path d="M0 256H172V0H0V256Z" fill="#F0F0E5"/>
<path d="M79 101H78.975M106.5 118.5L96.5 108.5C95.3599 107.403 94.0665 106.825 92.75 106.825C91.4335 106.825 90.1401 107.403 89 108.5L76.5 121M81.5 116L79 113.5C77.8599 112.403 76.5665 111.825 75.25 111.825C73.9335 111.825 72.6401 112.403 71.5 113.5L66.5 118.5M99 91H74C69.8579 91 66.5 94.3579 66.5 98.5V123.5C66.5 127.642 69.8579 131 74 131H99C103.142 131 106.5 127.642 106.5 123.5V98.5C106.5 94.3579 103.142 91 99 91Z" stroke="#C2C0B2" strokeWidth="3" strokeLinecap="round" strokeLinejoin="round"/>
<path d="M46.4914 171V157.909H48.8628V163.451H54.9289V157.909H57.3067V171H54.9289V165.439H48.8628V171H46.4914ZM64.1302 171.192C63.1459 171.192 62.2957 170.987 61.5798 170.578C60.8682 170.165 60.3206 169.581 59.9371 168.827C59.5535 168.068 59.3618 167.175 59.3618 166.148C59.3618 165.138 59.5535 164.252 59.9371 163.489C60.3248 162.722 60.866 162.126 61.5606 161.7C62.2552 161.269 63.0713 161.054 64.0088 161.054C64.6139 161.054 65.1849 161.152 65.7219 161.348C66.2631 161.54 66.7403 161.838 67.1537 162.243C67.5713 162.648 67.8994 163.163 68.1381 163.79C68.3767 164.412 68.496 165.153 68.496 166.014V166.724H60.4484V165.164H66.278C66.2737 164.721 66.1778 164.327 65.9903 163.982C65.8028 163.632 65.5407 163.357 65.2041 163.157C64.8717 162.957 64.4839 162.857 64.0407 162.857C63.5677 162.857 63.1523 162.972 62.7943 163.202C62.4363 163.428 62.1572 163.726 61.9569 164.097C61.7609 164.463 61.6608 164.866 61.6565 165.305V166.666C61.6565 167.237 61.7609 167.727 61.9697 168.136C62.1785 168.541 62.4704 168.852 62.8454 169.07C63.2204 169.283 63.6594 169.389 64.1622 169.389C64.4988 169.389 64.8035 169.342 65.0763 169.249C65.349 169.151 65.5855 169.008 65.7858 168.82C65.9861 168.633 66.1373 168.401 66.2396 168.124L68.4001 168.366C68.2638 168.937 68.0038 169.436 67.6203 169.862C67.241 170.284 66.7552 170.612 66.1629 170.847C65.5706 171.077 64.893 171.192 64.1302 171.192ZM69.6354 163.08V161.182H78.2263V163.08H75.0494V171H72.8122V163.08H69.6354ZM88.9889 174.337V157.909H91.3092V174.337H88.9889ZM88.9889 171.192C88.2687 171.192 87.6104 171.07 87.0138 170.827C86.4172 170.585 85.9015 170.239 85.4669 169.792C85.0365 169.344 84.702 168.812 84.4633 168.194C84.229 167.572 84.1118 166.884 84.1118 166.129C84.1118 165.375 84.229 164.687 84.4633 164.065C84.702 163.442 85.0365 162.908 85.4669 162.46C85.9015 162.009 86.4172 161.661 87.0138 161.418C87.6104 161.175 88.2687 161.054 88.9889 161.054H89.4811V171.192H88.9889ZM88.9889 169.325H89.2765V162.92H88.9889C88.5798 162.92 88.2176 163.006 87.9023 163.176C87.5912 163.342 87.3291 163.575 87.116 163.873C86.9072 164.167 86.7474 164.508 86.6366 164.896C86.5301 165.279 86.4768 165.69 86.4768 166.129C86.4768 166.713 86.5727 167.248 86.7645 167.734C86.9562 168.215 87.2375 168.601 87.6082 168.891C87.9832 169.18 88.4434 169.325 88.9889 169.325ZM91.3092 171.192H90.817V161.054H91.3092C92.0294 161.054 92.6878 161.175 93.2844 161.418C93.8809 161.661 94.3944 162.009 94.8248 162.46C95.2595 162.908 95.594 163.442 95.8284 164.065C96.067 164.687 96.1863 165.375 96.1863 166.129C96.1863 166.884 96.067 167.572 95.8284 168.194C95.594 168.812 95.2595 169.344 94.8248 169.792C94.3944 170.239 93.8809 170.585 93.2844 170.827C92.6878 171.07 92.0294 171.192 91.3092 171.192ZM91.3092 169.325C91.7226 169.325 92.0848 169.242 92.3959 169.076C92.7069 168.91 92.9669 168.68 93.1757 168.386C93.3888 168.092 93.5486 167.753 93.6551 167.369C93.7616 166.982 93.8149 166.568 93.8149 166.129C93.8149 165.545 93.7211 165.011 93.5336 164.525C93.3461 164.039 93.0649 163.651 92.6899 163.362C92.3192 163.067 91.8589 162.92 91.3092 162.92H91.0216V169.325H91.3092ZM102.422 171.192C101.463 171.192 100.632 170.981 99.9289 170.559C99.2258 170.137 98.6803 169.547 98.2925 168.788C97.909 168.03 97.7172 167.143 97.7172 166.129C97.7172 165.115 97.909 164.227 98.2925 163.464C98.6803 162.701 99.2258 162.109 99.9289 161.687C100.632 161.265 101.463 161.054 102.422 161.054C103.381 161.054 104.212 161.265 104.915 161.687C105.618 162.109 106.161 162.701 106.545 163.464C106.932 164.227 107.126 165.115 107.126 166.129C107.126 167.143 106.932 168.03 106.545 168.788C106.161 169.547 105.618 170.137 104.915 170.559C104.212 170.981 103.381 171.192 102.422 171.192ZM102.435 169.338C102.954 169.338 103.389 169.195 103.739 168.91C104.088 168.62 104.348 168.232 104.518 167.746C104.693 167.261 104.78 166.719 104.78 166.123C104.78 165.522 104.693 164.979 104.518 164.493C104.348 164.003 104.088 163.613 103.739 163.323C103.389 163.033 102.954 162.888 102.435 162.888C101.902 162.888 101.459 163.033 101.105 163.323C100.756 163.613 100.494 164.003 100.319 164.493C100.148 164.979 100.063 165.522 100.063 166.123C100.063 166.719 100.148 167.261 100.319 167.746C100.494 168.232 100.756 168.62 101.105 168.91C101.459 169.195 101.902 169.338 102.435 169.338ZM108.008 163.08V161.182H116.599V163.08H113.422V171H111.185V163.08H108.008ZM122.32 171.192C121.361 171.192 120.53 170.981 119.827 170.559C119.124 170.137 118.579 169.547 118.191 168.788C117.807 168.03 117.616 167.143 117.616 166.129C117.616 165.115 117.807 164.227 118.191 163.464C118.579 162.701 119.124 162.109 119.827 161.687C120.53 161.265 121.361 161.054 122.32 161.054C123.279 161.054 124.11 161.265 124.813 161.687C125.516 162.109 126.06 162.701 126.443 163.464C126.831 164.227 127.025 165.115 127.025 166.129C127.025 167.143 126.831 168.03 126.443 168.788C126.06 169.547 125.516 170.137 124.813 170.559C124.11 170.981 123.279 171.192 122.32 171.192ZM122.333 169.338C122.853 169.338 123.288 169.195 123.637 168.91C123.986 168.62 124.246 168.232 124.417 167.746C124.592 167.261 124.679 166.719 124.679 166.123C124.679 165.522 124.592 164.979 124.417 164.493C124.246 164.003 123.986 163.613 123.637 163.323C123.288 163.033 122.853 162.888 122.333 162.888C121.8 162.888 121.357 163.033 121.003 163.323C120.654 163.613 120.392 164.003 120.217 164.493C120.047 164.979 119.962 165.522 119.962 166.123C119.962 166.719 120.047 167.261 120.217 167.746C120.392 168.232 120.654 168.62 121.003 168.91C121.357 169.195 121.8 169.338 122.333 169.338Z" fill="#C2C0B2"/>
</svg>