<svg width="64" height="64" viewBox="0 0 64 64" fill="none" xmlns="http://www.w3.org/2000/svg">
<rect width="64" height="64" fill="#E6E6D9"/>
<circle cx="32" cy="32" r="32" fill="#E6E6D9"/>
<mask id="mask0_1240_7249" style="mask-type:alpha" maskUnits="userSpaceOnUse" x="0" y="0" width="64" height="64">
<circle cx="32" cy="32" r="32" fill="#E6E6D9"/>
</mask>
<g mask="url(#mask0_1240_7249)">
<mask id="mask1_1240_7249" style="mask-type:alpha" maskUnits="userSpaceOnUse" x="2" y="12" width="60" height="40">
<rect x="2" y="12" width="60" height="40" fill="#8BCF7B"/>
</mask>
<g mask="url(#mask1_1240_7249)">
<path d="M23.464 32.936C23.464 33.384 23.436 33.8507 23.38 34.336H12.544C12.6187 35.3067 12.9267 36.0533 13.468 36.576C14.028 37.08 14.7093 37.332 15.512 37.332C16.7067 37.332 17.5373 36.828 18.004 35.82H23.1C22.8387 36.8467 22.3627 37.7707 21.672 38.592C21 39.4133 20.1507 40.0573 19.124 40.524C18.0973 40.9907 16.9493 41.224 15.68 41.224C14.1493 41.224 12.7867 40.8973 11.592 40.244C10.3973 39.5907 9.464 38.6573 8.792 37.444C8.12 36.2307 7.784 34.812 7.784 33.188C7.784 31.564 8.11067 30.1453 8.764 28.932C9.436 27.7187 10.3693 26.7853 11.564 26.132C12.7587 25.4787 14.1307 25.152 15.68 25.152C17.192 25.152 18.536 25.4693 19.712 26.104C20.888 26.7387 21.8027 27.644 22.456 28.82C23.128 29.996 23.464 31.368 23.464 32.936ZM18.564 31.676C18.564 30.8547 18.284 30.2013 17.724 29.716C17.164 29.2307 16.464 28.988 15.624 28.988C14.8213 28.988 14.14 29.2213 13.58 29.688C13.0387 30.1547 12.7027 30.8173 12.572 31.676H18.564ZM33.7739 41L29.6859 33.58H28.5379V41H23.7499V21.344H31.7859C33.3352 21.344 34.6512 21.6147 35.7339 22.156C36.8352 22.6973 37.6566 23.444 38.1979 24.396C38.7392 25.3293 39.0099 26.3747 39.0099 27.532C39.0099 28.8387 38.6366 30.0053 37.8899 31.032C37.1619 32.0587 36.0792 32.7867 34.6419 33.216L39.1779 41H33.7739ZM28.5379 30.192H31.5059C32.3832 30.192 33.0366 29.9773 33.4659 29.548C33.9139 29.1187 34.1379 28.512 34.1379 27.728C34.1379 26.9813 33.9139 26.3933 33.4659 25.964C33.0366 25.5347 32.3832 25.32 31.5059 25.32H28.5379V30.192Z" fill="#5D5D53"/>
<path d="M53.0819 31.6621L51.9471 35.2168C51.5461 36.4928 51.3455 37.3861 51.3455 37.8965C51.3455 38.7624 51.7238 39.1953 52.4803 39.1953C53.1092 39.1953 53.5832 38.7943 53.9022 37.9922H54.5311C53.9204 40.2526 52.6626 41.3828 50.7577 41.3828C49.0168 41.3828 48.1463 40.6582 48.1463 39.209C48.1463 38.5436 48.4836 37.2858 49.158 35.4355L50.5389 31.6621H47.8319L46.4237 36.0918C45.7492 38.2246 45.1659 39.6419 44.6737 40.3438C44.1906 41.0365 43.5435 41.3828 42.7323 41.3828C42.1945 41.3828 41.7707 41.2188 41.4608 40.8906C41.1509 40.5625 40.9959 40.2025 40.9959 39.8105C40.9959 39.4733 41.078 39.1816 41.242 38.9355C41.4061 38.6895 41.716 38.3431 42.1717 37.8965C42.9465 37.14 43.6255 36.2832 44.2088 35.3262C44.7922 34.3691 45.3208 33.1478 45.7948 31.6621H44.3592C43.0832 31.6621 42.1945 32.1178 41.6932 33.0293L41.3377 32.8652C41.6476 31.8535 42.0213 31.0286 42.4588 30.3906C42.8963 29.7435 43.3612 29.3014 43.8534 29.0645C44.3547 28.8275 44.9608 28.709 45.6717 28.709H56.6092L55.8026 31.6621H53.0819Z" fill="#2C78C9"/>
</g>
</g>
</svg>
