<svg width="28" height="28" viewBox="0 0 28 28" fill="none" xmlns="http://www.w3.org/2000/svg">
<path d="M19.8333 10.4987V8.16536C19.8333 7.54653 19.5875 6.95303 19.1499 6.51545C18.7123 6.07786 18.1188 5.83203 17.5 5.83203H5.83333C5.21449 5.83203 4.621 6.07786 4.18342 6.51545C3.74583 6.95303 3.5 7.54653 3.5 8.16536V15.1654C3.5 15.7842 3.74583 16.3777 4.18342 16.8153C4.621 17.2529 5.21449 17.4987 5.83333 17.4987H8.16667M10.5 10.4987H22.1667C23.4553 10.4987 24.5 11.5434 24.5 12.832V19.832C24.5 21.1207 23.4553 22.1654 22.1667 22.1654H10.5C9.21134 22.1654 8.16667 21.1207 8.16667 19.832V12.832C8.16667 11.5434 9.21134 10.4987 10.5 10.4987ZM18.6667 16.332C18.6667 17.6207 17.622 18.6654 16.3333 18.6654C15.0447 18.6654 14 17.6207 14 16.332C14 15.0434 15.0447 13.9987 16.3333 13.9987C17.622 13.9987 18.6667 15.0434 18.6667 16.332Z" stroke="#5D5D53" stroke-width="2" stroke-linecap="round" stroke-linejoin="round"/>
</svg>
