<svg width="28" height="28" viewBox="0 0 28 28" fill="none" xmlns="http://www.w3.org/2000/svg">
<path d="M3.5 24.5H24.5M3.5 8.16667V9.33333C3.5 10.2616 3.86875 11.1518 4.52513 11.8082C5.1815 12.4646 6.07174 12.8333 7 12.8333C7.92826 12.8333 8.8185 12.4646 9.47487 11.8082C10.1313 11.1518 10.5 10.2616 10.5 9.33333M3.5 8.16667H10.5V9.33333M3.5 8.16667H24.5M3.5 8.16667L5.83333 3.5H22.1667L24.5 8.16667M10.5 9.33333C10.5 10.2616 10.8687 11.1518 11.5251 11.8082C12.1815 12.4646 13.0717 12.8333 14 12.8333C14.9283 12.8333 15.8185 12.4646 16.4749 11.8082C17.1313 11.1518 17.5 10.2616 17.5 9.33333M10.5 9.33333L17.5 8.16667V9.33333M17.5 9.33333C17.5 10.2616 17.8687 11.1518 18.5251 11.8082C19.1815 12.4646 20.0717 12.8333 21 12.8333C21.9283 12.8333 22.8185 12.4646 23.4749 11.8082C24.1313 11.1518 24.5 10.2616 24.5 9.33333V8.16667M5.83333 24.5001V12.6584M22.1667 24.5001V12.6584M10.5 24.5V19.8333C10.5 19.2145 10.7458 18.621 11.1834 18.1834C11.621 17.7458 12.2145 17.5 12.8333 17.5H15.1667C15.7855 17.5 16.379 17.7458 16.8166 18.1834C17.2542 18.621 17.5 19.2145 17.5 19.8333V24.5" stroke="#5D5D53" stroke-width="2" stroke-linecap="round" stroke-linejoin="round"/>
</svg>
