<svg width="29" height="28" viewBox="0 0 29 28" fill="none" xmlns="http://www.w3.org/2000/svg">
<mask id="mask0_2559_6992" style="mask-type:alpha" maskUnits="userSpaceOnUse" x="0" y="0" width="29" height="28">
<rect x="0.5" width="28" height="28" fill="#D9D9D9"/>
</mask>
<g mask="url(#mask0_2559_6992)">
<path d="M14.0543 20.9394V18.6087C13.2225 18.401 11.6413 17.8092 11.6413 16.1333C11.6413 14.4152 13.3239 13.9493 14.0543 13.8858V13.3351H14.9775V13.8858C16.8537 14.1118 17.2417 15.2654 17.3521 15.8218L15.7414 16.0051C15.6439 15.5675 15.3892 15.2709 14.9778 15.1151V17.2903C17.4914 17.7726 17.6134 19.1038 17.6134 19.7044C17.6134 21.6479 15.8051 22.1429 14.9778 22.2467V23.1507H14.0546V22.2745C13.32 22.1965 11.6819 21.834 11.3866 19.8604L13.0481 19.7044C13.2899 20.6614 13.8252 20.8432 14.0543 20.9394ZM14.0543 15.099C13.8036 15.1731 13.2331 15.3616 13.2331 16.067C13.2331 16.7721 13.7783 16.9195 14.0543 17.0238V15.099ZM14.9775 21.0176C15.2955 20.9656 16.0533 20.7329 16.0533 19.9051C16.0533 19.1742 15.3592 18.9444 14.9775 18.8482V21.0176ZM21.3036 11.7289C20.0632 9.6967 18.6235 8.25161 17.1024 7.47655L19.5341 3.29184C19.8794 2.72426 19.3673 2.23234 19.0892 2.05294C18.8408 1.89304 16.4823 0.340053 14.2527 1.32494C13.6094 1.67672 12.3346 1.82154 11.404 1.92736C10.9412 1.97988 10.5414 2.02538 10.2319 2.0883C10.0046 2.13458 9.07267 2.45828 9.50701 3.36282L11.8979 7.47629C10.3765 8.25135 8.93649 9.69644 7.69615 11.7286C6.03305 14.4531 5 17.8529 5 20.6001C5 23.2534 5.95903 25.0183 7.93163 25.9961C9.71141 26.8783 12.1402 27 14.4997 27C16.8593 27 19.2883 26.8783 21.0681 25.9964C23.041 25.0185 24 23.2537 24 20.6003C23.9997 17.8529 22.9667 14.4534 21.3036 11.7289ZM18.0327 3.5846L16.3283 6.51689H12.6712L11.4243 4.37136C13.1145 5.06088 14.4713 4.40828 14.9193 4.06508C15.616 3.53156 17.9964 3.58382 18.0327 3.5846ZM11.536 3.05966C12.6196 2.93642 13.7627 2.86284 14.5806 2.35896C15.4527 1.8218 16.6262 2.28096 17.1105 2.42968C16.0591 2.43436 14.8598 2.6187 14.0804 3.28144C13.1719 4.0539 11.7996 3.32252 11.2418 3.09346C11.3432 3.08176 11.443 3.07032 11.536 3.05966ZM20.55 24.9777C18.9852 25.7533 16.7173 25.8604 14.4997 25.8604C12.2824 25.8604 10.0146 25.7536 8.44947 24.9777C6.88356 24.2019 6.15448 22.8109 6.15448 20.6003C6.15448 18.0484 7.12431 14.8746 8.68495 12.317C9.8813 10.3568 11.2926 8.98949 12.726 8.35691C12.8156 8.38733 12.9249 8.41957 13.0555 8.44947C12.3375 9.04514 11.5499 9.91926 11.129 11.1004L12.2184 11.4787C12.8514 9.70242 14.5919 8.73625 14.9862 8.53657C15.356 8.50121 15.7691 8.43751 16.2261 8.33533C17.6758 8.95829 19.1053 10.335 20.3148 12.3167C21.8757 14.8743 22.8453 18.0482 22.8453 20.6001C22.8453 22.8109 22.1156 24.2016 20.55 24.9777Z" fill="#5D5D53" stroke="#5D5D53" stroke-width="0.6"/>
</g>
</svg>
