<svg width="28" height="28" viewBox="0 0 28 28" fill="none" xmlns="http://www.w3.org/2000/svg">
<path d="M16.3335 3.5V8.16667C16.3335 8.47609 16.4564 8.77283 16.6752 8.99162C16.894 9.21042 17.1907 9.33333 17.5002 9.33333H22.1668M16.3335 3.5H8.16683C7.54799 3.5 6.9545 3.74583 6.51691 4.18342C6.07933 4.621 5.8335 5.21449 5.8335 5.83333V22.1667C5.8335 22.7855 6.07933 23.379 6.51691 23.8166C6.9545 24.2542 7.54799 24.5 8.16683 24.5H19.8335C20.4523 24.5 21.0458 24.2542 21.4834 23.8166C21.921 23.379 22.1668 22.7855 22.1668 22.1667V9.33333M16.3335 3.5L22.1668 9.33333M16.3335 12.8333H13.4168C12.9527 12.8333 12.5076 13.0177 12.1794 13.3459C11.8512 13.6741 11.6668 14.1192 11.6668 14.5833C11.6668 15.0475 11.8512 15.4926 12.1794 15.8208C12.5076 16.149 12.9527 16.3333 13.4168 16.3333H14.5835C15.0476 16.3333 15.4927 16.5177 15.8209 16.8459C16.1491 17.1741 16.3335 17.6192 16.3335 18.0833C16.3335 18.5475 16.1491 18.9926 15.8209 19.3208C15.4927 19.649 15.0476 19.8333 14.5835 19.8333H11.6668M14.0002 19.8333V21M14.0002 11.6667V12.8333" stroke="#5D5D53" stroke-width="2" stroke-linecap="round" stroke-linejoin="round"/>
</svg>
