<svg width="28" height="28" viewBox="0 0 28 28" fill="none" xmlns="http://www.w3.org/2000/svg">
<path d="M8.1665 8.16667V8.17833M8.1665 11.6667V11.6783M8.1665 15.1667V15.1783M19.8332 8.16667V8.17833M19.8332 11.6667V11.6783M19.8332 15.1667V15.1783M9.33317 24.5C9.64259 24.5 9.93934 24.3771 10.1581 24.1583C10.3769 23.9395 10.4998 23.6428 10.4998 23.3333V22.1667C10.4998 21.2384 10.8686 20.3482 11.525 19.6918C12.1813 19.0354 13.0716 18.6667 13.9998 18.6667C14.9281 18.6667 15.8183 19.0354 16.4747 19.6918C17.1311 20.3482 17.4998 21.2384 17.4998 22.1667V23.3333C17.4998 23.6428 17.6228 23.9395 17.8415 24.1583C18.0603 24.3771 18.3571 24.5 18.6665 24.5H22.1665C22.4759 24.5 22.7727 24.3771 22.9915 24.1583C23.2103 23.9395 23.3332 23.6428 23.3332 23.3333V5.83333L19.8332 3.5L16.3332 5.83333V12.8333H11.6665V5.83333L8.1665 3.5L4.6665 5.83333V23.3333C4.6665 23.6428 4.78942 23.9395 5.00821 24.1583C5.22701 24.3771 5.52375 24.5 5.83317 24.5H9.33317Z" stroke="#5D5D53" stroke-width="2" stroke-linecap="round" stroke-linejoin="round"/>
</svg>
